<svg width="66" height="67" viewBox="0 0 66 67" fill="none" xmlns="http://www.w3.org/2000/svg">
<ellipse cx="32.9383" cy="33.076" rx="32.9383" ry="33.076" fill="#C2E7EA"/>
<path d="M20.34 22.451C18.4864 25.2469 18.9037 28.1671 19.5373 30.389C19.7534 31.1467 20.0292 31.9302 20.2658 32.6026C20.3639 32.8811 20.4552 33.1406 20.5328 33.3712C20.8371 34.2758 20.9613 34.8188 20.9613 35.166C20.9613 37.6149 21.2189 40.508 21.8403 42.8518C22.1473 44.0098 22.5792 45.1762 23.2121 46.0979C23.8422 47.0157 24.9052 48 26.4664 48C28.4728 48 29.5929 46.5976 30.1734 45.4521C30.707 44.3993 31.0452 43.079 31.3164 42.0202C31.3311 41.963 31.3455 41.9066 31.3598 41.8511C31.6747 40.6255 31.925 39.7159 32.2538 39.0964C32.3468 38.921 32.423 38.8159 32.4743 38.7561C32.509 38.8092 32.5541 38.8874 32.6063 38.999C32.8833 39.5909 33.0685 40.432 33.3294 41.6169C33.3398 41.6639 33.3502 41.7114 33.3608 41.7595C33.6034 42.8599 33.9271 44.311 34.5732 45.4765C34.9136 46.0905 35.3931 46.7233 36.0881 47.2016C36.8075 47.6967 37.65 47.9513 38.5733 47.9513C40.1162 47.9513 41.2002 47.035 41.8693 46.0899C42.5236 45.1657 42.9554 43.9971 43.2556 42.8443C43.8629 40.5119 44.0846 37.6273 44.0846 35.166C44.0846 34.8281 44.2089 34.2809 44.5139 33.3551C44.5876 33.1312 44.6727 32.883 44.7636 32.618C45.0018 31.9233 45.2796 31.113 45.4966 30.3215C46.1088 28.0878 46.5101 25.1146 44.5564 22.3906L44.5557 22.3896C43.5186 20.9453 42.3784 19.9492 41.0635 19.4338C39.7327 18.9121 38.47 18.9802 37.392 19.2061C36.6399 19.3638 35.8349 19.6384 35.1681 19.8658C34.9605 19.9367 34.7663 20.0029 34.5912 20.0596C33.7533 20.3312 33.0739 20.4945 32.4206 20.4945C31.7899 20.4945 31.1164 20.3303 30.2682 20.0509C30.0924 19.993 29.8975 19.9255 29.6894 19.8535C29.0163 19.6204 28.2041 19.3393 27.4467 19.1768C26.3685 18.9456 25.0905 18.8678 23.7568 19.4061C22.4344 19.9398 21.3202 20.9725 20.34 22.451ZM20.34 22.451L22.0065 23.5559L20.34 22.451Z" stroke="#34717B" stroke-width="4"/>
</svg>
