<svg width="29" height="33" viewBox="0 0 29 33" fill="none" xmlns="http://www.w3.org/2000/svg">
<path d="M10.2443 11.5946V0H13.6591V13.2793C13.6591 15.1126 12.1301 16.6486 10.2443 16.6486V31.3153C10.2443 32.2072 9.47979 33 8.51142 33H5.09666C4.17926 33 3.41476 32.2072 3.41476 31.3153V16.6486C1.529 16.6486 0 15.1126 0 13.2793V0H3.41476V11.5946H5.09666V0H8.51142V11.5946H10.2443ZM18.8067 16.6486V4.95495C18.8067 2.22973 21.1002 0 23.9033 0C26.7065 0 29 2.22973 29 4.95495V31.3153C29 32.2072 28.2865 33 27.3691 33H23.9033C22.9859 33 22.1705 32.2072 22.1705 31.3153V16.6486H18.8067Z" fill="white"/>
</svg>
