<svg width="66" height="66" viewBox="0 0 66 66" fill="none" xmlns="http://www.w3.org/2000/svg">
<ellipse cx="32.9383" cy="32.8756" rx="32.9383" ry="32.8756" fill="#C2E7EA"/>
<mask id="path-2-inside-1_4350_1184" fill="white">
<path fill-rule="evenodd" clip-rule="evenodd" d="M37.8308 17H27.1692V27.6615L16 27.6615V38.3231H27.1692V50H37.8308V38.3231H49V27.6615L37.8308 27.6615V17Z"/>
</mask>
<path d="M27.1692 17V14H24.1692V17H27.1692ZM37.8308 17H40.8308V14H37.8308V17ZM27.1692 27.6615L27.1692 30.6615L30.1692 30.6615V27.6615H27.1692ZM16 27.6615L16 24.6615L13 24.6615V27.6615H16ZM16 38.3231H13V41.3231H16V38.3231ZM27.1692 38.3231H30.1692V35.3231H27.1692V38.3231ZM27.1692 50H24.1692V53H27.1692V50ZM37.8308 50V53H40.8308V50H37.8308ZM37.8308 38.3231V35.3231H34.8308V38.3231H37.8308ZM49 38.3231V41.3231H52V38.3231H49ZM49 27.6615H52V24.6615L49 24.6615L49 27.6615ZM37.8308 27.6615H34.8308V30.6615L37.8308 30.6615L37.8308 27.6615ZM27.1692 20H37.8308V14H27.1692V20ZM30.1692 27.6615V17H24.1692V27.6615H30.1692ZM16 30.6615L27.1692 30.6615L27.1692 24.6615L16 24.6615L16 30.6615ZM19 38.3231V27.6615H13V38.3231H19ZM27.1692 35.3231H16V41.3231H27.1692V35.3231ZM30.1692 50V38.3231H24.1692V50H30.1692ZM37.8308 47H27.1692V53H37.8308V47ZM34.8308 38.3231V50H40.8308V38.3231H34.8308ZM49 35.3231H37.8308V41.3231H49V35.3231ZM46 27.6615V38.3231H52V27.6615H46ZM37.8308 30.6615L49 30.6615L49 24.6615L37.8308 24.6615L37.8308 30.6615ZM34.8308 17V27.6615H40.8308V17H34.8308Z" fill="#34717B" mask="url(#path-2-inside-1_4350_1184)"/>
</svg>
