<svg width="66" height="66" viewBox="0 0 66 66" fill="none" xmlns="http://www.w3.org/2000/svg">
<ellipse cx="32.9383" cy="32.8756" rx="32.9383" ry="32.8756" fill="#C2E7EA"/>
<path d="M44.0872 23.0264C42.4525 19.6902 39.0657 17.8154 35.5853 17.8154C33.9505 17.8154 32.2923 18.2289 30.7923 19.0955L29.181 20.0244C28.2904 20.5398 28.0033 21.65 28.5365 22.5109L30.4583 25.6205C30.8099 26.1869 31.431 26.5041 32.0697 26.5041C32.3978 26.5041 32.7259 26.4191 33.0306 26.2492L34.6419 25.3203C34.9407 25.1447 35.2747 25.0654 35.6029 25.0654C36.2415 25.0654 36.8626 25.3826 37.2142 25.949C37.7474 26.8043 37.4544 27.9201 36.5697 28.4355L15.8509 40.3357C14.9603 40.8512 14.6732 41.9613 15.2064 42.8223L17.1283 45.9318C17.4798 46.4982 18.1009 46.8154 18.7396 46.8154C19.0677 46.8154 19.3958 46.7305 19.7005 46.5605L40.0501 34.8643C44.2513 32.4344 46.179 27.3027 44.0872 23.0264ZM33.6751 23.7627L33.5286 23.8477L32.3275 20.3643C32.8958 20.098 33.4876 19.9055 34.1029 19.7865L35.3099 23.2869C34.7357 23.3322 34.1732 23.4738 33.6751 23.7627V23.7627ZM23.4857 42.2729L19.9408 40.0922L21.7454 39.0557L25.2904 41.2363L23.4857 42.2729V42.2729ZM29.7845 38.6535L26.2396 36.4729L28.0443 35.4363L31.5892 37.617L29.7845 38.6535V38.6535ZM36.2825 34.9209L32.7376 32.7402L34.5423 31.7037L38.0872 33.8844L36.2825 34.9209ZM37.4779 23.7457L40.1732 21.1402C40.6654 21.5084 41.1107 21.9389 41.4974 22.4203L38.8197 25.0088C38.4857 24.482 38.0169 24.0516 37.4779 23.7457V23.7457ZM42.2884 29.8516L38.8021 28.7301C38.9896 28.4299 39.1419 28.1127 39.2357 27.7615C39.3001 27.5066 39.3353 27.2461 39.3411 26.9912L42.8802 28.1297C42.7572 28.7188 42.5579 29.2965 42.2884 29.8516V29.8516Z" fill="#34717B"/>
</svg>
